rotated_Sprint_08100001_forces_filt12Hz.mot
version=1
nRows=24
nColumns=19
inDegrees=yes
endheader
time	R_ground_force_vx	R_ground_force_vy	R_ground_force_vz	R_ground_force_px	R_ground_force_py	R_ground_force_pz	R_ground_torque_x	R_ground_torque_y	R_ground_torque_z	L_ground_force_vx	L_ground_force_vy	L_ground_force_vz	L_ground_force_px	L_ground_force_py	L_ground_force_pz	L_ground_torque_x	L_ground_torque_y	L_ground_torque_z	
2.927000	  0.000000	  0.000000	  0.000000	  0.202139	  0.000000	 -0.631780	  0.000000	  0.000000	  0.000000	-126.054518	198.675693	 -3.112621	  0.927229	  0.000000	 -0.370165	  0.000000	  0.525380	  0.000000
2.927500	  0.000000	  0.000000	  0.000000	  0.204590	  0.000000	 -0.632170	  0.000000	  0.000000	  0.000000	-136.356440	221.893843	  0.883455	  0.924541	  0.000000	 -0.407002	  0.000000	  0.878844	  0.000000
2.928000	  0.000000	  0.000000	  0.000000	  0.207041	  0.000000	 -0.632560	  0.000000	  0.000000	  0.000000	-146.996069	246.353154	  5.116437	  0.921853	  0.000000	 -0.443840	  0.000000	  1.244473	  0.000000
2.928500	  0.000000	  0.000000	  0.000000	  0.209492	  0.000000	 -0.632950	  0.000000	  0.000000	  0.000000	-157.948252	272.067946	  9.598811	  0.923874	  0.000000	 -0.439932	  0.000000	  1.621043	  0.000000
2.929000	  0.000000	  0.000000	  0.000000	  0.211942	  0.000000	 -0.633341	  0.000000	  0.000000	  0.000000	-169.184988	299.048684	 14.343719	  0.925704	  0.000000	 -0.436329	  0.000000	  2.007218	  0.000000
2.929500	  0.000000	  0.000000	  0.000000	  0.214393	  0.000000	 -0.633731	  0.000000	  0.000000	  0.000000	-180.675380	327.301578	 19.364760	  0.927358	  0.000000	 -0.432977	  0.000000	  2.401631	  0.000000
2.930000	  0.000000	  0.000000	  0.000000	  0.216844	  0.000000	 -0.634121	  0.000000	  0.000000	  0.000000	-192.385600	356.828160	 24.675754	  0.928853	  0.000000	 -0.429836	  0.000000	  2.802956	  0.000000
2.930500	  0.000000	  0.000000	  0.000000	  0.219009	  0.000000	 -0.634202	  0.000000	  0.000000	  0.000000	-204.278876	387.624845	 30.290448	  0.930200	  0.000000	 -0.426870	  0.000000	  3.209946	  0.000000
2.931000	  0.000000	  0.000000	  0.000000	  0.221174	  0.000000	 -0.634283	  0.000000	  0.000000	  0.000000	-216.315509	419.682470	 36.222172	  0.931413	  0.000000	 -0.424053	  0.000000	  3.621446	  0.000000
2.931500	  0.000000	  0.000000	  0.000000	  0.223339	  0.000000	 -0.634364	  0.000000	  0.000000	  0.000000	-228.452961	452.985811	 42.483458	  0.932503	  0.000000	 -0.421359	  0.000000	  4.036365	  0.000000
2.932000	  0.000000	  0.000000	  0.000000	  0.225504	  0.000000	 -0.634445	  0.000000	  0.000000	  0.000000	-240.646024	487.513086	 49.085629	  0.933480	  0.000000	 -0.418771	  0.000000	  4.453615	  0.000000
2.932500	  0.000000	  0.000000	  0.000000	  0.227669	  0.000000	 -0.634525	  0.000000	  0.000000	  0.000000	-252.847078	523.235434	 56.038406	  0.934355	  0.000000	 -0.416271	  0.000000	  4.872016	  0.000000
2.933000	  0.000000	  0.000000	  0.000000	  0.229834	  0.000000	 -0.634606	  0.000000	  0.000000	  0.000000	-265.006422	560.116377	 63.349541	  0.935137	  0.000000	 -0.413848	  0.000000	  5.290197	  0.000000
2.933500	  0.000000	  0.000000	  0.000000	  0.231999	  0.000000	 -0.634687	  0.000000	  0.000000	  0.000000	-277.072669	598.111675	 71.024499	  0.935835	  0.000000	 -0.411491	  0.000000	  5.706502	  0.000000
2.934000	  0.000000	  0.000000	  0.000000	  0.234164	  0.000000	 -0.634768	  0.000000	  0.000000	  0.000000	-288.993184	637.170400	 79.066183	  0.936456	  0.000000	 -0.409190	  0.000000	  6.118948	  0.000000
2.934500	  0.000000	  0.000000	  0.000000	  0.236329	  0.000000	 -0.634849	  0.000000	  0.000000	  0.000000	-300.714554	677.237068	 87.474676	  0.937009	  0.000000	 -0.406940	  0.000000	  6.525216	  0.000000
2.935000	  0.000000	  0.000000	  0.000000	  0.238494	  0.000000	 -0.634930	  0.000000	  0.000000	  0.000000	-312.183070	718.253651	 96.247001	  0.937500	  0.000000	 -0.404734	  0.000000	  6.922665	  0.000000
2.935500	  0.000000	  0.000000	  0.000000	  0.240830	  0.000000	 -0.634803	  0.000000	  0.000000	  0.000000	-323.345216	760.161103	105.376852	  0.937937	  0.000000	 -0.402566	  0.000000	  7.308327	  0.000000
2.936000	  0.000000	  0.000000	  0.000000	  0.243167	  0.000000	 -0.634676	  0.000000	  0.000000	  0.000000	-334.148141	802.900797	114.854278	  0.938327	  0.000000	 -0.400434	  0.000000	  7.678843	  0.000000
2.936500	  0.000000	  0.000000	  0.000000	  0.245503	  0.000000	 -0.634548	  0.000000	  0.000000	  0.000000	-344.540124	846.415983	124.665323	  0.938676	  0.000000	 -0.398334	  0.000000	  8.030340	  0.000000
2.937000	  0.000000	  0.000000	  0.000000	  0.247839	  0.000000	 -0.634421	  0.000000	  0.000000	  0.000000	-354.471035	890.653050	134.791654	  0.938990	  0.000000	 -0.396263	  0.000000	  8.358257	  0.000000
2.937500	  0.000000	  0.000000	  0.000000	  0.250175	  0.000000	 -0.634294	  0.000000	  0.000000	  0.000000	-363.892814	935.562456	145.210224	  0.939273	  0.000000	 -0.394220	  0.000000	  8.657156	  0.000000
2.938000	  0.000000	  0.000000	  0.000000	  0.252512	  0.000000	 -0.634167	  0.000000	  0.000000	  0.000000	-372.760014	981.099232	155.893073	  0.939529	  0.000000	 -0.392203	  0.000000	  8.920545	  0.000000
2.938500	  0.000000	  0.000000	  0.000000	  0.254848	  0.000000	 -0.634040	  0.000000	  0.000000	  0.000000	-381.030432	1027.223088	166.807301	  0.939760	  0.000000	 -0.390211	  0.000000	  9.140747	  0.000000
